<svg width="20px" height="24px" viewBox="0 0 20 24" version="1.1" xmlns="http://www.w3.org/2000/svg" xmlns:xlink="http://www.w3.org/1999/xlink">
    <title>Symbols</title>
    <g id="Symbols" stroke="none" stroke-width="1" fill="none" fill-rule="evenodd">
        <g id="pickans-counter" fill="#000000">
            <path d="M16.6,7.5 L10.6,7.5 C10.048,7.5 9.6,7.948 9.6,8.5 C9.6,9.052 10.048,9.5 10.6,9.5 L16.6,9.5 C17.152,9.5 17.6,9.948 17.6,10.5 L17.6,20.22 L16.03,18.77 C15.846,18.597 15.603,18.501 15.35,18.5 L6.6,18.5 C6.048,18.5 5.6,18.052 5.6,17.5 L5.6,16.5 C5.6,15.948 5.152,15.5 4.6,15.5 C4.048,15.5 3.6,15.948 3.6,16.5 L3.6,17.5 C3.6,19.157 4.943,20.5 6.6,20.5 L14.96,20.5 L17.96,23.23 C18.134,23.394 18.361,23.489 18.6,23.5 C18.737,23.499 18.873,23.471 19,23.42 C19.366,23.26 19.601,22.899 19.6,22.5 L19.6,10.5 C19.6,8.843 18.257,7.5 16.6,7.5 Z" id="Path"></path>
            <path d="M5.49519986,0.242455546 C4.91041656,0.0526650656 4.3065323,-0.011973721 3.68942429,0.00177921231 C3.16488249,0.0141568523 2.6462179,0.0732944657 2.14077706,0.203947332 C1.74847268,0.305719039 1.37673857,0.444623666 1.02410543,0.620661212 L0,2.54057071 C0.0705266292,2.49931191 1.98650006,1.21341264 4.20368096,1.58199125 C5.02061442,1.71814529 5.63331451,2.17199209 5.99035557,2.88714463 C6.27980861,3.46476783 6.34445802,4.07402277 6.22250572,4.70115653 C6.08732968,5.39017849 5.76408263,6.0076852 5.3835327,6.60181192 C5.00298276,7.19456335 4.02148717,8.111884 3.70264803,8.84766593 C3.69089359,8.87242121 3.65122237,8.86554475 3.65122237,8.83941417 C3.59098087,7.42973851 3.55865616,5.51808077 3.53514729,4.14416273 L1.85573193,4.19642388 C1.83810027,4.20605093 1.81899931,4.21430269 1.79989835,4.22392975 C1.77785878,4.23493209 1.75141129,4.27068972 1.7543499,4.28994383 C1.78667461,4.48798607 1.83810027,4.79192589 1.8763022,4.98996813 C1.94976744,5.37917615 2.02470198,5.76838416 2.09816722,6.15759217 C2.16869385,6.53029667 2.23922048,6.90162587 2.30974711,7.27295507 C2.38321234,7.6580372 2.45667758,8.04174404 2.53014282,8.42682617 C2.60213876,8.80090596 2.67266539,9.17498575 2.74319201,9.55044083 C2.81665725,9.93689825 2.89012249,10.3233557 2.96505704,10.7111884 C2.98268869,10.8074589 3.00178966,10.9037295 3.01942131,11 L3.85251712,10.920233 C3.84957851,10.634172 3.83488546,10.6052908 3.8143152,10.3206051 C3.79080632,9.96165353 3.85692503,9.63295843 4.07144353,9.33314448 C4.14784738,9.22449631 4.21984331,9.11309755 4.29918577,9.00582467 C4.66504266,8.51622024 5.09407965,8.07337579 5.51283152,7.62365487 C6.15197909,6.9360082 6.7999425,5.98843109 7.35680901,5.23752093 C7.81229349,4.6255154 8.04885156,3.95712284 7.99154867,3.20483739 C7.94453092,2.58870597 7.77115295,2.01245807 7.3861951,1.50222424 C6.91454827,0.875090479 6.25483043,0.490008346 5.49519986,0.242455546 Z" id="Path" fill-rule="nonzero"></path>
            <path d="M3.72841377,11.7002466 C3.02638998,11.715223 2.4868303,12.2723453 2.50024477,12.9732411 C2.51365923,13.6591605 3.08750033,14.2117899 3.77312866,14.1998088 C4.46919047,14.18633 5.01173115,13.6247148 4.99980718,12.9313072 C4.98490221,12.2274161 4.42298508,11.6867678 3.72841377,11.7002466 Z" id="Path" fill-rule="nonzero"></path>
        </g>
    </g>
</svg>
